<svg id="Ebene_1" data-name="Ebene 1" xmlns="http://www.w3.org/2000/svg" viewBox="0 0 500 500"><title>Smarthome_weather_icons</title><path d="M250,74.11c99.53,0,180.51,81.3,180.51,181.24S349.53,436.59,250,436.59,69.49,355.28,69.49,255.35,150.47,74.11,250,74.11m0-36.45c-119.74,0-216.81,97.46-216.81,217.69S130.26,473,250,473s216.81-97.46,216.81-217.69S369.74,37.66,250,37.66Z"/><path d="M37,120.29a16.48,16.48,0,0,1-12.72-6A16.66,16.66,0,0,1,26.4,90.91L128.56,5.36a16.59,16.59,0,0,1,21.2,25.52L47.6,116.43A16.38,16.38,0,0,1,37,120.29Z"/><path d="M463,120.29a16.38,16.38,0,0,1-10.59-3.86L350.24,30.88a16.59,16.59,0,0,1,21.2-25.52L473.6,90.91a16.66,16.66,0,0,1,2.11,23.41A16.48,16.48,0,0,1,463,120.29Z"/><path d="M77.2,498.5A16.46,16.46,0,0,1,66,494.14a16.67,16.67,0,0,1-1-23.48l58.19-63.81a16.58,16.58,0,1,1,24.41,22.44L89.42,493.1A16.51,16.51,0,0,1,77.2,498.5Z"/><path d="M422.8,498.5a16.51,16.51,0,0,1-12.22-5.4L352.4,429.29a16.58,16.58,0,1,1,24.41-22.44L435,470.66a16.67,16.67,0,0,1-1,23.48A16.46,16.46,0,0,1,422.8,498.5Z"/><path d="M250,276.92a16.58,16.58,0,0,1-16.55-16.61V116.69a16.55,16.55,0,1,1,33.1,0V260.31A16.58,16.58,0,0,1,250,276.92Z"/><path d="M334.72,325.9a16.44,16.44,0,0,1-8.26-2.23l-84.74-49.12a16.6,16.6,0,0,1,16.56-28.78L343,294.89a16.63,16.63,0,0,1-8.29,31Z"/></svg>