<svg id="Ebene_1" data-name="Ebene 1" xmlns="http://www.w3.org/2000/svg" viewBox="0 0 500 300"><title>Smarthome_weather_icons</title><path d="M168.49,280.42a15,15,0,0,1-8.21-2.46L14.69,182.49,160.28,87a15,15,0,1,1,16.45,25.08L69.4,182.49l107.33,70.38a15,15,0,0,1-8.24,27.55Z"/><path d="M42,197.49a15,15,0,1,1,0-30H381.85c3.65-.05,73.46-1.81,73.46-59.24,0-24.27-11.33-40.83-34.66-50.63-18.61-7.82-37.85-8-38-8a15,15,0,0,1,0-30h0c1,0,25.23.12,49.66,10.38,34.21,14.37,53,42.17,53,78.29,0,20.28-5.74,37.78-17.07,52-8.91,11.19-21.11,20.12-36.27,26.54C407.4,197.2,383.06,197.48,382,197.49Z"/><path d="M314.53,49.58a15,15,0,0,1,0-30h68.08a15,15,0,0,1,0,30Z"/></svg>