<svg id="Ebene_1" data-name="Ebene 1" xmlns="http://www.w3.org/2000/svg" viewBox="0 0 500 500"><title>Smarthome_weather_icons</title><path d="M242.93,105.89a111,111,0,0,1,91.51,48.26l8,11.61,14.07-.4c1.22,0,2.29-.05,3.29-.05a114.4,114.4,0,1,1,0,228.8H106.22a80.39,80.39,0,0,1-.32-160.77h.58l24.22.06,1.62-24.17A110.87,110.87,0,0,1,242.93,105.89m0-25.84A136.71,136.71,0,0,0,106.54,207.51h-.32a106.22,106.22,0,0,0,0,212.44H359.76a140.24,140.24,0,1,0,0-280.47q-2,0-4,.06A136.55,136.55,0,0,0,242.93,80.05Z"/></svg>