<svg id="Ebene_1" data-name="Ebene 1" xmlns="http://www.w3.org/2000/svg" viewBox="0 0 500 500"><defs><style>.cls-1{fill:#1d1d1b;}</style></defs><title>Smarthome_weather_icons</title><path class="cls-1" d="M164.37,131.87a9.94,9.94,0,0,1-9.94-9.94V72.23a9.94,9.94,0,0,1,19.88,0v49.7A9.94,9.94,0,0,1,164.37,131.87Z"/><path class="cls-1" d="M90.61,162.42a9.92,9.92,0,0,1-7-2.91L48.44,124.37A9.94,9.94,0,0,1,62.5,110.31l35.14,35.14a9.94,9.94,0,0,1-7,17Z"/><path class="cls-1" d="M60.06,236.17H10.36a9.94,9.94,0,1,1,0-19.87h49.7a9.94,9.94,0,1,1,0,19.87Z"/><path class="cls-1" d="M55.47,345.07a9.94,9.94,0,0,1-7-17L83.58,293a9.94,9.94,0,1,1,14.06,14L62.5,342.16A9.92,9.92,0,0,1,55.47,345.07Z"/><path class="cls-1" d="M238.12,162.42a9.94,9.94,0,0,1-7-17l35.13-35.14a9.94,9.94,0,0,1,14.06,14.06l-35.14,35.14A9.9,9.9,0,0,1,238.12,162.42Z"/><path d="M301.78,189.57a85.38,85.38,0,0,1,70.41,37.13l6.12,8.93,10.83-.3c.93,0,1.76,0,2.53,0a88,88,0,1,1,0,176H196.59a61.86,61.86,0,0,1-.24-123.71h.44l18.64.05,1.24-18.6a85.32,85.32,0,0,1,85.11-79.52m0-19.88a105.19,105.19,0,0,0-104.95,98.07h-.24a81.73,81.73,0,1,0,0,163.46H391.67a107.91,107.91,0,1,0,0-215.81c-1,0-2.06,0-3.09.05a105.07,105.07,0,0,0-86.8-45.77Z"/><path d="M148.55,283.38a59.3,59.3,0,1,1,72.18-75.54,106.13,106.13,0,0,1,15.37-15.12,79.18,79.18,0,1,0-103.55,106A82,82,0,0,1,148.55,283.38Z"/></svg>