<svg id="Ebene_1" data-name="Ebene 1" xmlns="http://www.w3.org/2000/svg" viewBox="0 0 500 500"><defs><style>.cls-1{fill:#1d1d1b;}</style></defs><title>Smarthome_weather_icons</title><path d="M250,170.77a79.89,79.89,0,1,1-79.88,79.88A80,80,0,0,1,250,170.77M250,144A106.66,106.66,0,1,0,356.66,250.65,106.66,106.66,0,0,0,250,144Z"/><path class="cls-1" d="M250,123.53a13.39,13.39,0,0,1-13.39-13.39V43.2a13.39,13.39,0,1,1,26.78,0v66.94A13.39,13.39,0,0,1,250,123.53Z"/><path class="cls-1" d="M150.64,164.69a13.35,13.35,0,0,1-9.46-3.92L93.84,113.43A13.39,13.39,0,0,1,112.78,94.5l47.33,47.33a13.39,13.39,0,0,1-9.47,22.86Z"/><path class="cls-1" d="M109.49,264H42.55a13.39,13.39,0,1,1,0-26.77h66.94a13.39,13.39,0,1,1,0,26.77Z"/><path class="cls-1" d="M103.31,410.73a13.39,13.39,0,0,1-9.47-22.85l47.34-47.34a13.39,13.39,0,1,1,18.93,18.94l-47.33,47.33A13.33,13.33,0,0,1,103.31,410.73Z"/><path class="cls-1" d="M250,471.5a13.4,13.4,0,0,1-13.39-13.39V391.17a13.39,13.39,0,1,1,26.78,0v66.94A13.4,13.4,0,0,1,250,471.5Z"/><path class="cls-1" d="M396.69,410.73a13.33,13.33,0,0,1-9.47-3.92l-47.33-47.33a13.39,13.39,0,0,1,18.93-18.94l47.34,47.34a13.39,13.39,0,0,1-9.47,22.85Z"/><path class="cls-1" d="M457.45,264H390.51a13.39,13.39,0,1,1,0-26.77h66.94a13.39,13.39,0,1,1,0,26.77Z"/><path class="cls-1" d="M349.36,164.69a13.39,13.39,0,0,1-9.47-22.86L387.22,94.5a13.39,13.39,0,1,1,18.94,18.93l-47.34,47.34A13.35,13.35,0,0,1,349.36,164.69Z"/></svg>