<svg id="Ebene_1" data-name="Ebene 1" xmlns="http://www.w3.org/2000/svg" viewBox="0 0 500 500"><defs><style>.cls-1{fill:#1d1d1b;}</style></defs><title>Smarthome_weather_icons</title><path class="cls-1" d="M83.54,435.92A9.94,9.94,0,0,1,73.6,426V376.29a9.94,9.94,0,1,1,19.88,0V426A9.94,9.94,0,0,1,83.54,435.92Z"/><path class="cls-1" d="M139,488a9.94,9.94,0,0,1-9.94-9.94V428.39a9.94,9.94,0,0,1,19.88,0v49.69A9.94,9.94,0,0,1,139,488Z"/><path class="cls-1" d="M250,488a9.94,9.94,0,0,1-9.94-9.94V428.39a9.94,9.94,0,0,1,19.88,0v49.69A9.94,9.94,0,0,1,250,488Z"/><path class="cls-1" d="M305.49,435.92a9.94,9.94,0,0,1-9.94-9.94V376.29a9.94,9.94,0,1,1,19.87,0V426A9.94,9.94,0,0,1,305.49,435.92Z"/><path class="cls-1" d="M194.51,435.92a9.94,9.94,0,0,1-9.93-9.94V376.29a9.94,9.94,0,1,1,19.87,0V426A9.94,9.94,0,0,1,194.51,435.92Z"/><path class="cls-1" d="M361,488a9.94,9.94,0,0,1-9.94-9.94V428.39a9.94,9.94,0,1,1,19.88,0v49.69A9.94,9.94,0,0,1,361,488Z"/><path class="cls-1" d="M416.46,435.92a9.94,9.94,0,0,1-9.94-9.94V376.29a9.94,9.94,0,0,1,19.88,0V426A9.94,9.94,0,0,1,416.46,435.92Z"/><path d="M242.93,37.81a111,111,0,0,1,91.51,48.27l8,11.6,14.07-.39c1.22,0,2.29-.05,3.29-.05a114.4,114.4,0,1,1,0,228.8H106.22a80.39,80.39,0,0,1-.32-160.77h.58l24.22.06,1.62-24.17A110.89,110.89,0,0,1,242.93,37.81m0-25.83A136.7,136.7,0,0,0,106.54,139.44h-.32a106.22,106.22,0,0,0,0,212.44H359.76a140.24,140.24,0,1,0,0-280.47c-1.34,0-2.68,0-4,.06A136.56,136.56,0,0,0,242.93,12Z"/></svg>