<svg id="Ebene_1" data-name="Ebene 1" xmlns="http://www.w3.org/2000/svg" viewBox="0 0 500 500"><defs><style>.cls-1{fill:#1d1d1b;}</style></defs><title>Smarthome_weather_icons</title><path d="M242.93,29.81a111,111,0,0,1,91.51,48.27l8,11.6,14.07-.39c1.22,0,2.29-.05,3.29-.05a114.4,114.4,0,1,1,0,228.8H106.22a80.39,80.39,0,0,1-.32-160.77h.58l24.22.06,1.62-24.17A110.89,110.89,0,0,1,242.93,29.81m0-25.83A136.7,136.7,0,0,0,106.54,131.44h-.32a106.22,106.22,0,0,0,0,212.44H359.76a140.24,140.24,0,1,0,0-280.47c-1.34,0-2.68,0-4,.06A136.56,136.56,0,0,0,242.93,4Z"/><path class="cls-1" d="M143.21,395.88l-6.61-3.82,6.61-3.81A9.94,9.94,0,1,0,133.27,371l-6.61,3.82v-7.63a9.94,9.94,0,1,0-19.88,0v7.63L100.17,371a9.94,9.94,0,0,0-9.94,17.22l6.61,3.81-6.61,3.82a9.94,9.94,0,1,0,9.94,17.21l6.61-3.81v7.63a9.94,9.94,0,0,0,19.88,0v-7.63l6.61,3.81a9.94,9.94,0,1,0,9.94-17.21Z"/><path class="cls-1" d="M404.82,395.88l-6.61-3.82,6.61-3.81A9.94,9.94,0,0,0,394.88,371l-6.61,3.82v-7.63a9.94,9.94,0,1,0-19.88,0v7.63L361.78,371a9.94,9.94,0,0,0-9.94,17.22l6.61,3.81-6.61,3.82a9.94,9.94,0,1,0,9.94,17.21l6.61-3.81v7.63a9.94,9.94,0,0,0,19.88,0v-7.63l6.61,3.81a9.94,9.94,0,0,0,9.94-17.21Z"/><path class="cls-1" d="M274,395.88l-6.61-3.82,6.61-3.81A9.94,9.94,0,0,0,264.07,371l-6.61,3.82v-7.63a9.94,9.94,0,1,0-19.87,0v7.63L231,371A9.94,9.94,0,0,0,221,388.25l6.61,3.81L221,395.88A9.94,9.94,0,1,0,231,413.09l6.61-3.81v7.63a9.94,9.94,0,1,0,19.87,0v-7.63l6.61,3.81A9.94,9.94,0,1,0,274,395.88Z"/><path class="cls-1" d="M208.61,464.47,202,460.66l6.61-3.82a9.94,9.94,0,1,0-9.94-17.21l-6.61,3.81v-7.63a9.94,9.94,0,0,0-19.88,0v7.63l-6.61-3.81a9.94,9.94,0,0,0-9.94,17.21l6.61,3.82-6.61,3.81a9.94,9.94,0,0,0,9.94,17.22l6.61-3.82v7.63a9.94,9.94,0,0,0,19.88,0v-7.63l6.61,3.82a9.94,9.94,0,1,0,9.94-17.22Z"/><path class="cls-1" d="M339.41,464.47l-6.61-3.81,6.61-3.82a9.93,9.93,0,1,0-9.93-17.21l-6.61,3.81v-7.63a9.94,9.94,0,0,0-19.88,0v7.63l-6.61-3.81a9.94,9.94,0,1,0-9.94,17.21l6.61,3.82-6.61,3.81a9.94,9.94,0,0,0,9.94,17.22l6.61-3.82v7.63a9.94,9.94,0,1,0,19.88,0v-7.63l6.61,3.82a9.94,9.94,0,0,0,9.93-17.22Z"/></svg>