<svg id="Ebene_1" data-name="Ebene 1" xmlns="http://www.w3.org/2000/svg" viewBox="0 0 500 500"><defs><style>.cls-1{fill:#1d1d1b;}</style></defs><title>Smarthome_weather_icons</title><path class="cls-1" d="M78,435.92A9.94,9.94,0,0,1,68.08,426V376.29a9.94,9.94,0,0,1,19.88,0V426A9.94,9.94,0,0,1,78,435.92Z"/><path class="cls-1" d="M133.5,488a9.94,9.94,0,0,1-9.94-9.94V428.39a9.94,9.94,0,0,1,19.88,0v49.69A9.94,9.94,0,0,1,133.5,488Z"/><path class="cls-1" d="M244.47,488a9.94,9.94,0,0,1-9.93-9.94V428.39a9.94,9.94,0,1,1,19.87,0v49.69A9.94,9.94,0,0,1,244.47,488Z"/><path class="cls-1" d="M300,435.92A9.94,9.94,0,0,1,290,426V376.29a9.94,9.94,0,0,1,19.88,0V426A9.94,9.94,0,0,1,300,435.92Z"/><path class="cls-1" d="M355.45,488a9.94,9.94,0,0,1-9.94-9.94V428.39a9.94,9.94,0,1,1,19.87,0v49.69A9.94,9.94,0,0,1,355.45,488Z"/><path class="cls-1" d="M410.93,435.92A9.94,9.94,0,0,1,401,426V376.29a9.94,9.94,0,0,1,19.88,0V426A9.94,9.94,0,0,1,410.93,435.92Z"/><path d="M243.4,37.81a111,111,0,0,1,91.51,48.27l8,11.6,14.07-.39c1.22,0,2.3-.05,3.3-.05a114.4,114.4,0,0,1,0,228.8H106.69a80.39,80.39,0,0,1-.32-160.77H107l24.23.06,1.61-24.17A110.89,110.89,0,0,1,243.4,37.81m0-25.83A136.71,136.71,0,0,0,107,139.44h-.32a106.22,106.22,0,0,0,0,212.44H360.24a140.24,140.24,0,0,0,0-280.47c-1.35,0-2.69,0-4,.06A136.58,136.58,0,0,0,243.4,12Z"/><path class="cls-1" d="M186.51,435.92a9.94,9.94,0,0,1-9.93-9.94V376.29a9.94,9.94,0,1,1,19.87,0V426A9.94,9.94,0,0,1,186.51,435.92Z"/><polygon points="216.79 410.46 317 253.67 245 252.76 279.67 115.67 193 278.95 260.33 279 216.79 410.46"/></svg>