<svg id="Ebene_1" data-name="Ebene 1" xmlns="http://www.w3.org/2000/svg" viewBox="0 0 500 500"><title>Smarthome_weather_icons</title><path d="M495.9,235.78h0c0-.23,0-.45,0-.67v0a7,7,0,0,0-.45-2l0-.07c-.07-.19-.15-.37-.23-.54l-.1-.18-.22-.41-.15-.22-.23-.33-.18-.23-.24-.29-.06-.06L390.75,118.23,377.2,79.39a7.27,7.27,0,0,0-6.2-4.85c-.9-.08-91.06-8.07-187.94,10.58-53.48,10.29-99.58,28.53-122.3,38.49a395.75,395.75,0,0,0-39.46,19.6C4.51,153,3,156.67,2.23,158.65c-6.67,16.69,12,32.72,25.59,44.42,3.32,2.85,7.8,6.71,9,8.33,2.6,10.17,10.12,101.06,14.3,156.75a7.3,7.3,0,0,0,6.46,6.69l427.54,47.5a7.14,7.14,0,0,0,.8,0,7.29,7.29,0,0,0,7.28-7.16l.3-20.22a6.63,6.63,0,0,0,.19-1.54l2.23-157.57v-.1ZM479.07,385.22,89.68,342,76.92,194l404.32,48.15ZM470,226.13,91.24,181a463.51,463.51,0,0,1,69.65-30.21c50-17.12,128.6-34.71,219.89-21.91ZM69.84,135.53c37.39-16.09,78.58-28.92,116-36.12,82.4-15.86,159.82-12,179.22-10.73l8.58,24.61C283.41,102.47,206,120,156.17,137c-47.35,16.21-78.56,34.56-88.2,40.6l-47.4-16.88C28.59,155.38,45.16,146.15,69.84,135.53ZM65.16,361c-.94-12.24-3.19-41.34-5.67-70.71-6.67-78.86-8.42-82.77-9.35-84.86-1.68-3.74-5.55-7.18-12.83-13.43-4.7-4-11.64-10-16.44-15.73L62.05,191,75.69,349.22a7.28,7.28,0,0,0,6.45,6.6l396.71,44-.11,7.15Z"/><path d="M318.11,327.52l-.59,5.33a23.17,23.17,0,0,0-3.3,1.6c-1.91,1.35-3.71,2.84-5.55,4.28-2.44,1.89-2.69,4.15-.77,6.48,1.64,2,3.25,4,5,6.15l1.32-1.5a10,10,0,0,1,11.66-2.38,9.36,9.36,0,0,1,5.36,10.23,9.62,9.62,0,0,1-8.48,7.57,9.73,9.73,0,0,1-10.11-5.73c-.39-.9-.68-1.63-1.91-1.65-.42,0-.91-.49-1.23-.86-3-3.48-5.9-7-8.84-10.49a3.61,3.61,0,0,1-.25-.3c-1-1.33.19-9.31,1.5-10.32,2.89-2.26,5.93-4.37,8.66-6.8C312.78,327.17,315,326.32,318.11,327.52Zm.3,28a3.23,3.23,0,0,0,2.67,3.59,3.39,3.39,0,0,0,3.81-2.72,3.24,3.24,0,0,0-2.79-3.49A3.33,3.33,0,0,0,318.41,355.47Z"/><path d="M415.65,365.66l6.42.65c-.21,1.84-.26,3.66-.64,5.41a4.7,4.7,0,0,0,1.43,4.57,61.11,61.11,0,0,1,4.09,4.86,4.11,4.11,0,0,0,3.18,1.7q23.07,2.29,46.13,4.7l2.31.24-.68,6.07c-.62,0-1.27,0-1.92-.11q-24.68-2.5-49.37-5a4.07,4.07,0,0,1-3-1.62c-2.62-3.24-5.4-6.36-8-9.64a4.64,4.64,0,0,1-.89-3C414.88,371.62,415.31,368.72,415.65,365.66Z"/><path d="M447.33,346.61l.67-6c3.54.37,7,.69,10.5,1.12.5.06,1,.61,1.36,1,2.88,3.38,5.77,6.75,8.55,10.21a5.11,5.11,0,0,1,.73,2.46,6.84,6.84,0,0,1-.19,1.94c-.47,2.65-.6,4.82,2.25,6.84,3.31,2.35,3.64,7.16,1.67,10.74a10,10,0,0,1-10.63,4.82,9.64,9.64,0,0,1-7.71-8.12,9.43,9.43,0,0,1,5.58-9.6c.73-.34,1.86-.89,1.88-1.39.09-1.86,1.34-3.8-.16-5.61a11.88,11.88,0,0,1-1-1.23c-2.86-4.55-6.63-7.58-12.59-7A3.1,3.1,0,0,1,447.33,346.61Zm17.27,20.8a3.16,3.16,0,1,0,2.91,3.43A3.35,3.35,0,0,0,464.6,367.41Z"/><path d="M436.22,238.5l-.33,3-6.32-.65,1-9.14,4.23.43c5.67.59,11.34,1.14,17,1.77a2.44,2.44,0,0,0,2.69-1.08,9.72,9.72,0,0,1,11.28-3.56,9.3,9.3,0,0,1,6.42,9.81,9.44,9.44,0,0,1-8.41,8.3,9.79,9.79,0,0,1-10.32-5.71c-.27-.57-.81-1.39-1.31-1.45C446.94,239.56,441.69,239.06,436.22,238.5Zm26.72-3.56a3.36,3.36,0,0,0-3.66,2.67,3.3,3.3,0,0,0,2.73,3.57,3.36,3.36,0,0,0,3.78-2.76A3.31,3.31,0,0,0,462.94,234.94Z"/><path d="M451.46,309.36l.69-6.17,3.23.33c5.47.56,10.95,1.07,16.4,1.73a3.29,3.29,0,0,1,2.1,1.38c1.44,2.36,2.73,4.8,4,7.27a2.56,2.56,0,0,0,2.44,1.63c2,.1,4,.39,6.2.61l-.68,6.16c-3.55-.36-7.17-.7-10.77-1.15-.44,0-.9-.7-1.17-1.18-1.35-2.4-2.71-4.81-3.94-7.28a2.8,2.8,0,0,0-2.59-1.74C462.08,310.5,456.84,309.91,451.46,309.36Z"/><path d="M488.22,300.42l-35.3-3.61.65-5.92,35.31,3.61Z"/><path d="M448.7,334.14l.65-5.91,35.42,3.62-.65,5.91Z"/><path d="M320.92,302.5l-.65,5.89-35.42-3.62.65-5.89Z"/><path d="M454.23,284.28l.65-5.9L490.3,282l-.65,5.89Z"/><path d="M382,371.47l-19.15-2,1-9.07,6.21.63L370,364l6.35.65.54-2.87,6.19.64Z"/><path d="M427.49,259.53l1.35-12.15L435,248l-1.34,12.15Z"/><path d="M332.49,259.23l.65-5.93,12.67,1.3-.66,5.92Z"/><path d="M436.15,269.84l.65-5.88,12.73,1.3-.65,5.89Z"/><path d="M344.49,267.13l-.65,5.86-12.7-1.3.64-5.86Z"/><path d="M434.77,282.3l.65-5.88,12.73,1.3-.65,5.89Z"/><path d="M310.22,282.17l.66-5.9,12.73,1.3-.65,5.9Z"/><path d="M329.67,284.16l.66-5.9,12.73,1.3-.65,5.9Z"/><path d="M433.39,294.76l.65-5.88,12.73,1.3-.65,5.88Z"/><path d="M341,298l-12.63-1.29.67-6L341.66,292Z"/><path d="M432,307.22l.65-5.88,12.73,1.3-.65,5.88Z"/><path d="M340.36,304.49l-.65,5.9L327,309.09l.66-5.91Z"/><path d="M430.62,319.68l.65-5.89L444,315.1l-.65,5.88Z"/><path d="M463.5,317.06l-.66,5.95-12.67-1.3.66-5.95Z"/><path d="M325.54,321.52l.65-5.86L338.9,317l-.64,5.86Z"/><path d="M442.66,327.53l-.66,5.94-12.64-1.3.66-5.93Z"/><path d="M336.88,335.35l-12.67-1.29.66-6,12.67,1.3Z"/><path d="M427.87,344.6l.65-5.89,12.74,1.3-.66,5.9Z"/><path d="M338.66,351.25,340,339.08l6.19.63-1.35,12.17Z"/><path d="M357.84,353.23l-6.17-.63L353,340.39l6.17.63Z"/><path d="M370.78,354.6l-6.14-.62L366,341.74l6.13.63Z"/><path d="M396.69,357.23l-6.1-.62,1.35-12.2,6.1.62Z"/><path d="M403.5,357.86l1.34-12.13,6.23.63-1.34,12.14Z"/><path d="M424.05,347.68l-1.34,12.17-6.19-.64L417.86,347Z"/><path d="M368.85,253.6l-6.13-.62,1.35-12.24,6.14.62Z"/><path d="M385.19,343.74l-1.34,12.09-6.25-.64,1.34-12.09Z"/><path d="M349.68,251.53l1.34-12.1,6.27.64L356,252.17Z"/><path d="M381.85,254.9l-6.2-.63L377,242.1l6.2.63Z"/><path d="M394.8,256.24l-6.17-.63L390,243.37l6.16.63Z"/><path d="M401.56,256.88l1.35-12.16,6.18.63-1.35,12.16Z"/><path d="M414.53,258.22,415.88,246l6.19.64-1.35,12.18Z"/><polygon points="418.38 337.28 345.45 329.82 353.21 259.74 426.14 267.2 418.38 337.28"/><path d="M111.54,274.72c2.49,3.45,3.2,8.17,8.88,7.07l-.69,6.26c-2.14-.22-4.15-.5-6.17-.6a3,3,0,0,1-2.72-1.64c-1.83-3.12-4-6.06-5.62-9.29-1.46-3-3.77-3.26-6.56-3-.57,2-.61,3.42,1.49,4.85a8.72,8.72,0,0,1,2.75,10.93,9.83,9.83,0,0,1-10.28,5.47,9.48,9.48,0,0,1-8.31-8,8.94,8.94,0,0,1,5.5-9.74A3,3,0,0,0,92,274c2.52-23.1,5.1-46.19,7.61-69.29a4.21,4.21,0,0,1,1.86-3.22c3.33-2.47,6.53-5.11,9.88-7.56a4.65,4.65,0,0,1,2.87-.87q16,1.52,32,3.27a4.25,4.25,0,0,1,2.5,1.27c2.57,2.87,4.82,6,7.51,8.75,2.05,2.08,2,4.19,1.3,6.66l-5.71-.59a19.17,19.17,0,0,0-1.5-3c-1.59-2-3.23-4-5-5.93a4.41,4.41,0,0,0-2.48-1.3c-6.27-.73-12.55-1.35-18.83-2-3.1-.31-6.48-1.44-9.24-.63s-5.11,3.53-7.52,5.53a4.08,4.08,0,0,0-1.38,2.38c-1.27,10.89-2.45,21.79-3.66,32.69-.06.62-.13,1.23-.22,2l22.52,2.3-.69,6.2-22.39-2.29-.69,6.3,22.4,2.29-.68,6.12L100,260.89l-.69,6.28,22.51,2.31-.69,6.23ZM97.21,285.78a3.25,3.25,0,0,0-3-3.47,3.3,3.3,0,0,0-3.46,2.9,3.25,3.25,0,0,0,3,3.37A3.39,3.39,0,0,0,97.21,285.78Z"/><path d="M232.5,213.68c3.05-2.05,5.83-4.47,8.74-6.71,1.31-1,9.66-.41,10.82.76a3.76,3.76,0,0,1,.25.31c2.94,3.5,5.89,7,8.8,10.5.32.39.71,1,.63,1.35-.24,1.15.44,1.58,1.27,2.13a9.1,9.1,0,0,1,3.7,10.7,9.89,9.89,0,0,1-18.76-.81,9.25,9.25,0,0,1,4.88-10.45l1.8-.93c-1.82-2.08-3.53-4-5.2-6-2-2.29-4.33-2.53-6.77-.64-1.84,1.43-3.74,2.81-5.52,4.32a22.07,22.07,0,0,0-2.32,2.75l-5.54-.56C228.7,217.27,230,215.34,232.5,213.68Zm21.7,15.82a3.26,3.26,0,0,0,3,3.36,3.37,3.37,0,0,0,3.57-3,3.28,3.28,0,0,0-6.54-.35Z"/><path d="M271.51,269a8.53,8.53,0,0,0-7.67-4c-3.35,0-6.69-.61-10-1l.69-6.18c5.63.58,11.15,1.11,16.65,1.74a2.89,2.89,0,0,1,1.58,1c2.93,3.42,5.82,6.88,8.7,10.33.3.35.81.82.73,1.11-.46,1.62.77,2.11,1.77,2.87a9,9,0,0,1,2.52,11.78A10,10,0,0,1,275,291.21a9.41,9.41,0,0,1-6.79-10.14c.5-3.88,2.93-6.31,6.9-8A38.48,38.48,0,0,1,271.51,269Zm9.62,13.56a3.28,3.28,0,1,0-3.55,2.82A3.35,3.35,0,0,0,281.13,282.53Z"/><path d="M112.22,328c0,.48.67,1.17,1.2,1.54a9.16,9.16,0,0,1,3.64,10.9,9.69,9.69,0,0,1-10.22,6.15,9.52,9.52,0,0,1-8.63-8.1,9.09,9.09,0,0,1,6-9.84,2.31,2.31,0,0,0,1.66-2.3c.55-5.46,1.18-10.91,1.79-16.35.15-1.34.29-2.68.45-4.07l9.51,1-.68,6.07-3.08-.32C113.28,317.9,112.68,322.94,112.22,328Zm-4.66,12.41a3.15,3.15,0,1,0-2.94-3.4A3.29,3.29,0,0,0,107.56,340.4Z"/><path d="M115.73,237.13c.41-3.75.76-7.37,1.24-11a2.38,2.38,0,0,0-1.23-2.72A9,9,0,0,1,112,212.9a9.76,9.76,0,0,1,9.83-6.46,9.52,9.52,0,0,1,9.08,7.84,9.28,9.28,0,0,1-5.79,10.17c-.62.26-1.49.72-1.59,1.2-.38,2-.5,4-.73,6l3.12.49-.66,6Zm6-24.46a3.38,3.38,0,0,0-3.66,2.9,3.27,3.27,0,1,0,3.66-2.9Z"/><path d="M82.61,300.07l-.67,6c.48.1,1,.24,1.49.3,4.79.5,9.58,1.05,14.38,1.43a4.74,4.74,0,0,0,2.88-.86c2.82-2,5.48-4.28,8.3-6.32a4.75,4.75,0,0,1,2.72-.75c2.16.07,4.31.39,6.62.63l.68-6.16c-3.46-.36-7-.76-10.55-1-.48,0-1.07.46-1.53.81-2.82,2.16-5.56,4.39-8.44,6.47a4.43,4.43,0,0,1-2.72.77C91.45,301,87.14,300.53,82.61,300.07Z"/><path d="M250.29,295.3l-.66,5.91,35.42,3.62.66-5.91Z"/><path d="M260.53,289.73l2-18.4-9.44-1-.66,6,2.95.49-.67,6.1-3-.09-.66,5.95Z"/><path d="M137.09,308.87l-12.65-1.29-.66,5.93,12.65,1.3Z"/><path d="M156.78,219.55l-6.17-.63-1.34,12.17,6.16.63Z"/><path d="M145.76,319.17l-6.13-.63-1.35,12.24,6.12.63Z"/><path d="M162.29,232.49l6.1.63,1.35-12.21-6.09-.63Z"/><path d="M158.72,320.5l-6.12-.63-1.35,12.24,6.12.62Z"/><path d="M184.8,203.47l-6.13-.63-1.36,12.24,6.14.63Z"/><path d="M182.73,222.16l-6.13-.63-1.36,12.24,6.14.62Z"/><path d="M171.68,321.83l-6.11-.63-1.36,12.23,6.12.63Z"/><path d="M194.39,235.7l1.35-12.13-6.24-.64-1.34,12.14Z"/><path d="M184.65,323.15l-6.12-.63-1.35,12.24,6.11.62Z"/><path d="M201.16,236.48l6.14.63,1.36-12.24-6.14-.63Z"/><path d="M197.62,324.47l-6.13-.62-1.35,12.23,6.12.63Z"/><path d="M188,354.8l6.19.64,1.35-12.17-6.19-.63Z"/><path d="M221.61,226.14l-6.1-.62-1.36,12.21,6.1.63Z"/><path d="M203.07,337.43l6.18.63,1.34-12.14-6.17-.64Z"/><path d="M233.3,239.71l1.34-12.18-6.19-.64-1.35,12.18Z"/><path d="M223.55,327.13l-6.13-.63-1.36,12.24,6.14.63Z"/><path d="M249.09,244.72l-12.66-1.3-.66,6,12.66,1.3Z"/><path d="M247.07,263.16l.66-5.93L235,255.93l-.66,5.93Z"/><path d="M245.74,275.6l.66-5.89-12.74-1.3L233,274.3Z"/><path d="M243,300.5l.64-5.86-12.7-1.3-.64,5.86Z"/><path d="M242.17,307l-12.63-1.3-.66,6,12.63,1.3Z"/><path d="M227.48,324.2l12.66,1.29.66-5.95-12.66-1.29Z"/><path d="M143.4,252.53l.66-5.89-12.74-1.3-.65,5.89Z"/><path d="M231.66,286.85l12.58,1.29.66-6-12.57-1.28Z"/><path d="M145.33,234.08l-12.59-1.28-.67,6,12.59,1.29Z"/><path d="M142,265l.66-6L130,257.77l-.66,6Z"/><path d="M140.63,277.46l.65-5.92-12.73-1.3-.66,5.92Z"/><path d="M139.85,284l-12.65-1.29-.66,5.94,12.65,1.29Z"/><path d="M138.49,296.41l-12.68-1.29-.66,5.95,12.68,1.3Z"/><polygon points="218.1 316.67 225.86 246.59 152.94 239.13 145.18 309.21 218.1 316.67"/><path d="M389.86,363c-.45,4.07-.9,8.11-1.35,12.15l6.14.68q.68-6.09,1.36-12.2Z"/><path d="M171.13,209.82c.12-1.11.24-2.21.37-3.31,0-.41.11-.83.17-1.25l-6.28-.75c-.21,1.37-.49,2.75-.62,4.08-.16,1.68-.36,3.35-.57,5.2l6.42.66C170.79,212.87,171,211.35,171.13,209.82Z"/><path d="M191,209.26a49.63,49.63,0,0,0-.84,7.1l6.31.65c.08-.46.21-1,.27-1.56.27-2.37.56-4.74.82-7.11l-6.22-.74A15.31,15.31,0,0,1,191,209.26Z"/><path d="M203.23,217.79l6.14.63q.47-4.29.95-8.56l-6.13-.73C203.87,212,203.56,214.9,203.23,217.79Z"/><path d="M279.36,239a4.63,4.63,0,0,1-.87,1.63,1.94,1.94,0,0,1-.46.38c-2.5,1.9-4.73,4.65-7.56,5.48s-6.14-.35-9.24-.66l-5.41-.55c-.24,2.18-.45,4-.68,6.18,2.79.29,5.53.58,8.28.84,3.09.29,6.45,1.37,9.23.59s4.67-3.7,7.26-5.21c4.48-2.61,6.1-6.23,6.38-11.21.33-5.81,1.06-11.6,1.76-17.39l-6.38-.76Q280.56,228.71,279.36,239Z"/><path d="M223.31,211.64c0-.08,0-.15,0-.23l-6.33-.75c-.31,2.77-.61,5.55-.92,8.37l6.41.66A62.22,62.22,0,0,0,223.31,211.64Z"/><path d="M300.62,220.62q-3.35,29.82-6.57,59.66a4.38,4.38,0,0,0,.88,3c2.62,3.33,5.36,6.57,8.18,9.75a4.62,4.62,0,0,0,2.62,1.42c4.71.6,9.45,1,14.18,1.49.57.06,1.15.05,1.64.07.24-2.13.45-4,.67-6.06a53.82,53.82,0,0,0-7.41-.7c-5.39.19-9.07-2-12-6.29-1.47-2.14-2.39-3.92-1.94-6.53.69-3.95.95-8,1.39-11.9,2,1.73,3.63,3.95,5.84,4.84,2.39,1,5.33.71,8,1l3.44.35,4.82.49.69-6.16c-1.93-.2-3.68-.36-5.42-.56-3.15-.37-6.75,0-9.32-1.38s-4.22-4.49-6.14-6.93a3.72,3.72,0,0,1-.71-2.45c1.15-10.77,2.35-21.53,3.52-32.29Z"/><path d="M477,257.2c-.26,4.38-1.79,7-6.1,8.54-2,.69-3.69,1.33-5.81,1-2.86-.44-5.76-.62-8.74-.93-.24,2.12-.45,4-.68,6.17a39.12,39.12,0,0,1,4.67.5,20.61,20.61,0,0,0,17.28-3.13,12.48,12.48,0,0,1,2.87-1.45,2.65,2.65,0,0,0,.42-.18l.38-25.59-2.78-.34C477.84,246.92,477.27,252.06,477,257.2Z"/><path d="M416.52,239.49l6.41.66c.19-1.7.31-3.32.52-4.91l-6.38-.76C416.88,236.16,416.7,237.84,416.52,239.49Z"/><path d="M319.9,222.91l-6.34-.75q-1.26,11.13-2.44,22.26a4,4,0,0,0,.77,2.63c2.38,3,5.1,5.79,7.32,8.9,1.69,2.35,3.85,2.71,6.5,2.62.23-2,.44-4,.61-5.5a18.64,18.64,0,0,1-2.7-2c-1.74-1.91-3.43-3.88-5-5.94a4.08,4.08,0,0,1-.8-2.61c.57-6,1.27-12.07,2-18.1C319.84,223.91,319.88,223.41,319.9,222.91Z"/><path d="M371.8,229.09l-6.43-.76q-.33,2.92-.65,5.84l6.45.66C371.38,232.9,371.59,231,371.8,229.09Z"/><path d="M403.46,238.18l6.51.66c.19-1.78.33-3.47.57-5.13l-7.51-.9C404.09,234.18,404.53,235.81,403.46,238.18Z"/><path d="M397.71,232.18l-6.47-.77c-.21,1.84-.41,3.67-.61,5.51l6.48.67C397.31,235.77,397.5,234,397.71,232.18Z"/><path d="M384.7,230.63l-6.35-.76c-.21,1.89-.42,3.78-.63,5.65l6.37.65C384.3,234.31,384.5,232.48,384.7,230.63Z"/><path d="M339.36,225.53a3.3,3.3,0,0,1-3.6,2.72,3.26,3.26,0,0,1-2.9-3.41,2.21,2.21,0,0,1,.08-.37l-6.45-.77a9.24,9.24,0,0,0,6.07,10.15,10,10,0,0,0,11.57-3.31c.39-.52,1-1.25,1.55-1.23,2.08.05,4.14.35,6.25.57-.06,1.15-.11,2-.16,3l6.22.64c.22-2.06.44-4,.66-6l-19.28-2.3A1.51,1.51,0,0,1,339.36,225.53Z"/><path d="M221.52,346.71a3.34,3.34,0,0,0,0-.88l-6.28-.64c-.38,3.41-.79,6.75-1.08,10.11a1.25,1.25,0,0,0,.13.54l8.79,1A10.47,10.47,0,0,1,221.52,346.71Z"/><path d="M267.71,332.06c-2.75-3.14-5.34-6.41-8.13-9.52a5,5,0,0,0-2.81-1.46c-3-.46-6-.67-9.23-1-.24,2.16-.44,4-.68,6.17,1.91.2,3.77.53,5.63.54a5.06,5.06,0,0,1,4.35,2.3,59.21,59.21,0,0,0,4.09,4.87A3.85,3.85,0,0,1,262,337.3q-1.35,11.77-2.64,23.54l6.42.71q1.46-13.16,2.94-26.32A3.72,3.72,0,0,0,267.71,332.06Z"/><path d="M282.22,321.24c-2.73-3.41-5.57-6.75-8.44-10.06a3.38,3.38,0,0,0-1.92-1.16c-7.55-.84-15.12-1.59-22.91-2.39-.23,2.13-.45,4.05-.68,6.18,5,.51,9.9,1.32,14.82,1.42a12.52,12.52,0,0,1,10.57,5.49,10.42,10.42,0,0,1,2.41,8.3q-2,16.62-3.77,33.26l6.42.71q2.17-19.56,4.29-39.14A3.94,3.94,0,0,0,282.22,321.24Z"/><path d="M344.28,358.36l-6.43-.66c-.2,1.85-.38,3.52-.57,5.19-.25,2.14-.09,4.49-.49,6.54l6.37.71c.07-1.28.09-2.59.24-3.83C343.71,363.68,344,361,344.28,358.36Z"/><path d="M300.85,314c-3.41,2.59-6.74,5.27-10.17,7.83a3.81,3.81,0,0,0-1.64,2.92c-1.39,13-2.85,25.94-4.26,38.91l6.38.71c1.28-11.13,2.6-22.25,3.64-33.4a10.53,10.53,0,0,1,4.28-7.78c3.46-2.89,6.85-4.15,11.35-3.13a69.16,69.16,0,0,0,8.36.92c.25-2.21.46-4.12.69-6.16-5.67-.58-11.19-1.18-16.72-1.66A3.25,3.25,0,0,0,300.85,314Z"/><path d="M357.25,359.74l-6.43-.66c-.44,4-.88,7.87-1.29,11.77l6.35.7a10.7,10.7,0,0,1,.24-2.19C356.78,366.21,356.9,363,357.25,359.74Z"/><path d="M495.9,235.78h0c0-.23,0-.45,0-.67v0a7,7,0,0,0-.45-2l0-.07c-.07-.19-.15-.37-.23-.54l-.1-.18-.22-.41-.15-.22-.23-.33-.18-.23-.24-.29-.06-.06L390.75,118.23,377.2,79.39a7.27,7.27,0,0,0-6.2-4.85c-.9-.08-91.06-8.07-187.94,10.58-53.48,10.29-99.58,28.53-122.3,38.49a395.75,395.75,0,0,0-39.46,19.6C4.51,153,3,156.67,2.23,158.65c-6.67,16.69,12,32.72,25.59,44.42,3.32,2.85,7.8,6.71,9,8.33,2.6,10.17,10.12,101.06,14.3,156.75a7.3,7.3,0,0,0,6.46,6.69l427.54,47.5a7.14,7.14,0,0,0,.8,0,7.29,7.29,0,0,0,7.28-7.16l.3-20.22a6.63,6.63,0,0,0,.19-1.54l2.23-157.57v-.1ZM479.07,385.22,89.68,342,76.92,194l404.32,48.15ZM470,226.13,91.24,181a463.51,463.51,0,0,1,69.65-30.21c50-17.12,128.6-34.71,219.89-21.91ZM69.84,135.53c37.39-16.09,78.58-28.92,116-36.12,82.4-15.86,159.82-12,179.22-10.73l8.58,24.61C283.41,102.47,206,120,156.17,137c-47.35,16.21-78.56,34.56-88.2,40.6l-47.4-16.88C28.59,155.38,45.16,146.15,69.84,135.53ZM65.16,361c-.94-12.24-3.19-41.34-5.67-70.71-6.67-78.86-8.42-82.77-9.35-84.86-1.68-3.74-5.55-7.18-12.83-13.43-4.7-4-11.64-10-16.44-15.73L62.05,191,75.69,349.22a7.28,7.28,0,0,0,6.45,6.6l396.71,44-.11,7.15Z"/><path d="M143.36,342.41a36.86,36.86,0,0,1,.47-4.5l-6.41-.65c-.32,2.86-.74,5.62-.9,8.4a6.61,6.61,0,0,1-.26,1.52l6.57.73A21.46,21.46,0,0,0,143.36,342.41Z"/><path d="M150.5,338.57l-1.11,10.07,6.12.68c.38-3.37.75-6.75,1.12-10.12Z"/><path d="M163.5,340c-.37,3.36-.75,6.74-1.12,10.11l6.16.68c.37-3.38.75-6.75,1.12-10.16Z"/><path d="M176.31,341.22c-.12,1.08-.23,2.1-.34,3.11l-.81,7.17,6.43.71c.39-3.41.76-6.84,1.15-10.33Z"/><path d="M202.38,343.87l-1.17,10.52,6.14.68q.59-5.26,1.17-10.57Z"/></svg>